<mxfile host="app.diagrams.net" modified="2023-06-01T13:18:53.970Z" agent="Mozilla/5.0 (Macintosh; Intel Mac OS X 10.15; rv:109.0) Gecko/20100101 Firefox/113.0" etag="6-pZUqALxvhu02rO1Y6X" version="21.3.6" type="device">
  <diagram name="Seite-1" id="Y-HmVM256UKIsyw4x2EG">
    <mxGraphModel dx="1434" dy="769" grid="1" gridSize="10" guides="1" tooltips="1" connect="1" arrows="1" fold="1" page="1" pageScale="1" pageWidth="827" pageHeight="1169" math="0" shadow="0">
      <root>
        <mxCell id="0" />
        <mxCell id="1" parent="0" />
        <mxCell id="_XAvxWVdzfX-aqqT2iwJ-3" value="" style="rounded=0;whiteSpace=wrap;html=1;" vertex="1" parent="1">
          <mxGeometry x="360" y="1120" width="170" height="280" as="geometry" />
        </mxCell>
        <mxCell id="_XAvxWVdzfX-aqqT2iwJ-4" value="Einstellungen" style="rounded=0;whiteSpace=wrap;html=1;" vertex="1" parent="1">
          <mxGeometry x="360" y="1120" width="170" height="30" as="geometry" />
        </mxCell>
        <mxCell id="_XAvxWVdzfX-aqqT2iwJ-6" value="Import/Export Data" style="rounded=1;whiteSpace=wrap;html=1;" vertex="1" parent="1">
          <mxGeometry x="375" y="1169" width="140" height="40" as="geometry" />
        </mxCell>
        <mxCell id="FH9pZEetrbGAIlVDyN-j-4" value="" style="rounded=0;whiteSpace=wrap;html=1;" parent="1" vertex="1">
          <mxGeometry x="40" y="400" width="170" height="280" as="geometry" />
        </mxCell>
        <mxCell id="FH9pZEetrbGAIlVDyN-j-5" value="Organizer" style="rounded=0;whiteSpace=wrap;html=1;" parent="1" vertex="1">
          <mxGeometry x="40" y="400" width="170" height="30" as="geometry" />
        </mxCell>
        <mxCell id="FH9pZEetrbGAIlVDyN-j-13" value="" style="rounded=0;whiteSpace=wrap;html=1;" parent="1" vertex="1">
          <mxGeometry x="360" y="40" width="170" height="280" as="geometry" />
        </mxCell>
        <mxCell id="FH9pZEetrbGAIlVDyN-j-14" value="Finances" style="rounded=0;whiteSpace=wrap;html=1;" parent="1" vertex="1">
          <mxGeometry x="360" y="40" width="170" height="30" as="geometry" />
        </mxCell>
        <mxCell id="FH9pZEetrbGAIlVDyN-j-15" value="Potenziell nach Bedarf Fitness und Ernährung noch mal aufteilen." style="rounded=0;whiteSpace=wrap;html=1;" parent="1" vertex="1">
          <mxGeometry x="360" y="400" width="170" height="280" as="geometry" />
        </mxCell>
        <mxCell id="FH9pZEetrbGAIlVDyN-j-16" value="Fitness/Diet" style="rounded=0;whiteSpace=wrap;html=1;" parent="1" vertex="1">
          <mxGeometry x="360" y="400" width="170" height="30" as="geometry" />
        </mxCell>
        <mxCell id="FH9pZEetrbGAIlVDyN-j-17" value="" style="rounded=0;whiteSpace=wrap;html=1;" parent="1" vertex="1">
          <mxGeometry x="360" y="760" width="170" height="280" as="geometry" />
        </mxCell>
        <mxCell id="FH9pZEetrbGAIlVDyN-j-18" value="Note/ToDo" style="rounded=0;whiteSpace=wrap;html=1;" parent="1" vertex="1">
          <mxGeometry x="360" y="760" width="170" height="30" as="geometry" />
        </mxCell>
        <mxCell id="FH9pZEetrbGAIlVDyN-j-23" value="Finances" style="rounded=1;whiteSpace=wrap;html=1;" parent="1" vertex="1">
          <mxGeometry x="55" y="440" width="140" height="40" as="geometry" />
        </mxCell>
        <mxCell id="FH9pZEetrbGAIlVDyN-j-24" value="Note/ToDo" style="rounded=1;whiteSpace=wrap;html=1;" parent="1" vertex="1">
          <mxGeometry x="55" y="560" width="140" height="40" as="geometry" />
        </mxCell>
        <mxCell id="FH9pZEetrbGAIlVDyN-j-25" value="Fitness/Diet" style="rounded=1;whiteSpace=wrap;html=1;" parent="1" vertex="1">
          <mxGeometry x="55" y="500" width="140" height="40" as="geometry" />
        </mxCell>
        <mxCell id="FH9pZEetrbGAIlVDyN-j-26" value="" style="endArrow=classic;html=1;rounded=0;" parent="1" edge="1">
          <mxGeometry width="50" height="50" relative="1" as="geometry">
            <mxPoint x="195" y="460" as="sourcePoint" />
            <mxPoint x="365" y="60.5" as="targetPoint" />
            <Array as="points">
              <mxPoint x="285" y="460.5" />
              <mxPoint x="285" y="60.5" />
            </Array>
          </mxGeometry>
        </mxCell>
        <mxCell id="FH9pZEetrbGAIlVDyN-j-27" value="" style="endArrow=classic;html=1;rounded=0;" parent="1" edge="1">
          <mxGeometry width="50" height="50" relative="1" as="geometry">
            <mxPoint x="195" y="520" as="sourcePoint" />
            <mxPoint x="365" y="420" as="targetPoint" />
            <Array as="points">
              <mxPoint x="325" y="520" />
              <mxPoint x="325" y="420" />
            </Array>
          </mxGeometry>
        </mxCell>
        <mxCell id="FH9pZEetrbGAIlVDyN-j-28" value="" style="endArrow=classic;html=1;rounded=0;" parent="1" edge="1">
          <mxGeometry width="50" height="50" relative="1" as="geometry">
            <mxPoint x="195" y="580" as="sourcePoint" />
            <mxPoint x="365" y="780" as="targetPoint" />
            <Array as="points">
              <mxPoint x="285" y="580" />
              <mxPoint x="285" y="780" />
            </Array>
          </mxGeometry>
        </mxCell>
        <mxCell id="FH9pZEetrbGAIlVDyN-j-29" value="App in drei interne Teile aufgespaltet, die absolut nichts miteinander zu tun haben." style="text;html=1;strokeColor=none;fillColor=none;align=center;verticalAlign=middle;whiteSpace=wrap;rounded=0;" parent="1" vertex="1">
          <mxGeometry x="40" y="250" width="180" height="70" as="geometry" />
        </mxCell>
        <mxCell id="FH9pZEetrbGAIlVDyN-j-31" value="--&amp;gt; Back Navigation funktioniert auch nicht über die Statusbar sondern wie bei der CheckItNow App über einen extra Button" style="text;html=1;strokeColor=none;fillColor=none;align=center;verticalAlign=middle;whiteSpace=wrap;rounded=0;" parent="1" vertex="1">
          <mxGeometry x="40" y="320" width="220" height="79" as="geometry" />
        </mxCell>
        <mxCell id="FH9pZEetrbGAIlVDyN-j-33" value="" style="endArrow=none;dashed=1;html=1;rounded=0;" parent="1" edge="1">
          <mxGeometry width="50" height="50" relative="1" as="geometry">
            <mxPoint x="600" y="1160" as="sourcePoint" />
            <mxPoint x="600" as="targetPoint" />
          </mxGeometry>
        </mxCell>
        <mxCell id="FH9pZEetrbGAIlVDyN-j-34" value="&lt;font style=&quot;font-size: 20px;&quot;&gt;Erste Idee&lt;/font&gt;" style="text;html=1;strokeColor=none;fillColor=none;align=center;verticalAlign=middle;whiteSpace=wrap;rounded=0;" parent="1" vertex="1">
          <mxGeometry width="180" height="40" as="geometry" />
        </mxCell>
        <mxCell id="FH9pZEetrbGAIlVDyN-j-35" value="&lt;font style=&quot;font-size: 20px;&quot;&gt;Zweite Idee&lt;/font&gt;" style="text;html=1;strokeColor=none;fillColor=none;align=center;verticalAlign=middle;whiteSpace=wrap;rounded=0;" parent="1" vertex="1">
          <mxGeometry x="600" width="180" height="40" as="geometry" />
        </mxCell>
        <mxCell id="FH9pZEetrbGAIlVDyN-j-36" value="" style="rounded=0;whiteSpace=wrap;html=1;" parent="1" vertex="1">
          <mxGeometry x="640" y="400" width="170" height="280" as="geometry" />
        </mxCell>
        <mxCell id="FH9pZEetrbGAIlVDyN-j-37" value="Organizer" style="rounded=0;whiteSpace=wrap;html=1;" parent="1" vertex="1">
          <mxGeometry x="640" y="400" width="170" height="30" as="geometry" />
        </mxCell>
        <mxCell id="FH9pZEetrbGAIlVDyN-j-39" value="Einstellungen" style="rounded=1;whiteSpace=wrap;html=1;" parent="1" vertex="1">
          <mxGeometry x="55" y="620" width="140" height="40" as="geometry" />
        </mxCell>
        <mxCell id="FH9pZEetrbGAIlVDyN-j-40" value="&lt;span style=&quot;font-size: 12px;&quot;&gt;Finances&lt;/span&gt;" style="rounded=0;whiteSpace=wrap;html=1;fontSize=20;" parent="1" vertex="1">
          <mxGeometry x="640" y="430" width="60" height="30" as="geometry" />
        </mxCell>
        <mxCell id="FH9pZEetrbGAIlVDyN-j-41" value="&lt;font style=&quot;font-size: 12px;&quot;&gt;Fit./Diet&lt;/font&gt;" style="rounded=0;whiteSpace=wrap;html=1;fontSize=20;" parent="1" vertex="1">
          <mxGeometry x="700" y="430" width="50" height="30" as="geometry" />
        </mxCell>
        <mxCell id="FH9pZEetrbGAIlVDyN-j-42" value="&lt;div style=&quot;text-align: justify;&quot;&gt;&lt;span style=&quot;font-size: 12px; background-color: initial;&quot;&gt;Note/ToDo&lt;/span&gt;&lt;/div&gt;" style="rounded=0;whiteSpace=wrap;html=1;fontSize=20;" parent="1" vertex="1">
          <mxGeometry x="750" y="430" width="60" height="30" as="geometry" />
        </mxCell>
        <mxCell id="FH9pZEetrbGAIlVDyN-j-43" value="Picker entsprechende View" style="rounded=0;whiteSpace=wrap;html=1;fontSize=12;" parent="1" vertex="1">
          <mxGeometry x="650" y="470" width="150" height="200" as="geometry" />
        </mxCell>
        <mxCell id="2KL445eVry4sD8q0gy7c-1" value="" style="rounded=0;whiteSpace=wrap;html=1;" parent="1" vertex="1">
          <mxGeometry x="40" y="720" width="170" height="280" as="geometry" />
        </mxCell>
        <mxCell id="2KL445eVry4sD8q0gy7c-2" value="or:" style="text;html=1;strokeColor=none;fillColor=none;align=center;verticalAlign=middle;whiteSpace=wrap;rounded=0;" parent="1" vertex="1">
          <mxGeometry x="90" y="690" width="60" height="30" as="geometry" />
        </mxCell>
        <mxCell id="2KL445eVry4sD8q0gy7c-4" value="Organizer" style="rounded=0;whiteSpace=wrap;html=1;" parent="1" vertex="1">
          <mxGeometry x="40" y="720" width="170" height="30" as="geometry" />
        </mxCell>
        <mxCell id="2KL445eVry4sD8q0gy7c-6" value="&quot;Finances&lt;br&gt;Icon&quot;" style="rounded=1;whiteSpace=wrap;html=1;" parent="1" vertex="1">
          <mxGeometry x="40" y="760" width="80" height="80" as="geometry" />
        </mxCell>
        <mxCell id="2KL445eVry4sD8q0gy7c-7" value="&quot;Fitness/Diat&lt;br&gt;Icon&quot;" style="rounded=1;whiteSpace=wrap;html=1;" parent="1" vertex="1">
          <mxGeometry x="130" y="760" width="80" height="80" as="geometry" />
        </mxCell>
        <mxCell id="2KL445eVry4sD8q0gy7c-8" value="&quot;Note/ToDo&lt;br&gt;Icon&quot;" style="rounded=1;whiteSpace=wrap;html=1;" parent="1" vertex="1">
          <mxGeometry x="40" y="850" width="80" height="80" as="geometry" />
        </mxCell>
        <mxCell id="2KL445eVry4sD8q0gy7c-9" value="&quot;Import/Export Data&lt;br&gt;Icon&quot;" style="rounded=1;whiteSpace=wrap;html=1;" parent="1" vertex="1">
          <mxGeometry x="130" y="850" width="80" height="80" as="geometry" />
        </mxCell>
        <mxCell id="_XAvxWVdzfX-aqqT2iwJ-1" value="" style="endArrow=classic;html=1;rounded=0;" edge="1" parent="1">
          <mxGeometry width="50" height="50" relative="1" as="geometry">
            <mxPoint x="195" y="640" as="sourcePoint" />
            <mxPoint x="370" y="1130" as="targetPoint" />
            <Array as="points">
              <mxPoint x="245" y="640" />
              <mxPoint x="245" y="1130" />
            </Array>
          </mxGeometry>
        </mxCell>
        <mxCell id="_XAvxWVdzfX-aqqT2iwJ-8" value="Activate NekoAPI Mode" style="rounded=1;whiteSpace=wrap;html=1;" vertex="1" parent="1">
          <mxGeometry x="375" y="1220" width="140" height="40" as="geometry" />
        </mxCell>
        <mxCell id="_XAvxWVdzfX-aqqT2iwJ-16" value="" style="shape=table;startSize=0;container=1;collapsible=0;childLayout=tableLayout;fontSize=16;flipV=1;flipH=1;direction=north;columnLines=1;" vertex="1" parent="1">
          <mxGeometry x="360" y="1010" width="170" height="30" as="geometry" />
        </mxCell>
        <mxCell id="_XAvxWVdzfX-aqqT2iwJ-21" value="" style="shape=tableRow;horizontal=0;startSize=0;swimlaneHead=0;swimlaneBody=0;strokeColor=inherit;top=0;left=0;bottom=0;right=0;collapsible=0;dropTarget=0;fillColor=none;points=[[0,0.5],[1,0.5]];portConstraint=eastwest;fontSize=16;" vertex="1" parent="_XAvxWVdzfX-aqqT2iwJ-16">
          <mxGeometry width="170" height="30" as="geometry" />
        </mxCell>
        <mxCell id="_XAvxWVdzfX-aqqT2iwJ-23" value="&lt;font style=&quot;font-size: 12px;&quot;&gt;Note&lt;/font&gt;" style="shape=partialRectangle;html=1;whiteSpace=wrap;connectable=0;strokeColor=inherit;overflow=hidden;fillColor=none;top=0;left=0;bottom=0;right=0;pointerEvents=1;fontSize=16;flipV=1;flipH=0;" vertex="1" parent="_XAvxWVdzfX-aqqT2iwJ-21">
          <mxGeometry width="85" height="30" as="geometry">
            <mxRectangle width="85" height="30" as="alternateBounds" />
          </mxGeometry>
        </mxCell>
        <mxCell id="_XAvxWVdzfX-aqqT2iwJ-24" value="&lt;font style=&quot;font-size: 12px;&quot;&gt;Trello&lt;/font&gt;" style="shape=partialRectangle;html=1;whiteSpace=wrap;connectable=0;strokeColor=inherit;overflow=hidden;fillColor=none;top=0;left=0;bottom=0;right=0;pointerEvents=1;fontSize=16;" vertex="1" parent="_XAvxWVdzfX-aqqT2iwJ-21">
          <mxGeometry x="85" width="85" height="30" as="geometry">
            <mxRectangle width="85" height="30" as="alternateBounds" />
          </mxGeometry>
        </mxCell>
      </root>
    </mxGraphModel>
  </diagram>
</mxfile>
